<?xml version="1.0" encoding="UTF-8" standalone="no"?>
<!DOCTYPE svg PUBLIC "-//W3C//DTD SVG 1.1//EN" "http://www.w3.org/Graphics/SVG/1.1/DTD/svg11.dtd">
<svg width="100%" height="100%" viewBox="0 0 1000 1000" version="1.1" xmlns="http://www.w3.org/2000/svg" xmlns:xlink="http://www.w3.org/1999/xlink" xml:space="preserve" xmlns:serif="http://www.serif.com/" style="fill-rule:evenodd;clip-rule:evenodd;stroke-linejoin:round;stroke-miterlimit:1.5;">
    <path d="M635,946C624,942 614.333,900.5 602,884C590.978,869.255 577.667,854.816 561,847C531.5,833.167 458.167,814.333 425,801C402.859,792.099 383.432,777.494 362,767C337.833,755.167 307.441,742.093 280,730C250.5,717 201.667,698.833 185,689C179.637,685.836 178.872,677.124 180,671C181.167,664.667 185.863,655.773 192,651C199.5,645.167 214.167,639.167 225,636C235.318,632.984 246.333,630.667 257,632C271.667,633.833 294.278,642.211 313,647C334.5,652.5 370.333,663 386,665C393.222,665.922 402.333,662.667 407,659C411.577,655.403 414,648.821 414,643C414,634 411.332,617.129 407,605C400.333,586.333 384.667,550.333 374,531C365.594,515.765 353.813,502.633 343,489C331.5,474.5 315.333,457 305,444C296.537,433.352 288.167,422.5 281,411C273.833,399.5 265.667,383.333 262,375C260.078,370.632 260.757,365.438 259,361C255.833,353 246.283,339.088 243,327C239.333,313.5 236,292.167 237,280C237.782,270.487 243.333,259.5 249,254C254.522,248.64 265.333,245 271,247C276.667,249 279.441,259.409 283,266C287.5,274.333 293.667,288.5 298,297C301.456,303.778 304.643,310.763 309,317C317.5,329.167 334.463,353.31 349,370C367,390.667 403.833,430.833 417,441C420.922,444.029 429.872,435.588 428,431C422.833,418.333 397.667,385.833 386,365C375.364,346.006 365.5,324.167 358,306C351.282,289.728 345.667,268.333 341,256C337.886,247.769 332.261,240.505 330,232C326.5,218.833 319.833,190 320,177C320.109,168.502 327.167,159.333 331,154C333.918,149.94 338.469,147.114 343,145C348,142.667 355.5,140.167 361,140C366.172,139.843 372.333,141.333 376,144C379.667,146.667 381.5,151.833 383,156C384.485,160.125 383.837,164.773 385,169C386.833,175.667 391.667,188.833 394,196C395.73,201.313 397.038,206.768 399,212C401.5,218.667 404.562,228.556 409,236C419.333,253.333 444.833,288.833 461,316C477.094,343.045 512.333,410.333 506,399C499.667,387.667 441,287 423,248C410.892,221.765 400.167,182.167 398,165C397.026,157.287 404.833,150.333 410,145C415.167,139.667 422.167,135.167 429,133C435.833,130.833 445.333,129.667 451,132C456.667,134.333 460.333,142 463,147C465.435,151.566 464.446,157.5 467,162C470.5,168.167 479.333,176.333 484,184C488.576,191.517 490.388,200.505 495,208C504.333,223.167 529.833,258.5 540,275C546.256,285.153 551.056,296.147 556,307C562.833,322 572.833,350.333 581,365C587.23,376.189 599.5,389.667 605,395C607.206,397.139 614.247,400.063 614,397C613.167,386.667 603.667,352.333 600,333C596.732,315.77 595,295.333 592,281C589.58,269.437 585.524,258.276 582,247C577.833,233.667 570,210.667 567,201C565.778,197.062 563.863,193.121 564,189C564.167,184 565.333,175.833 568,171C570.621,166.249 575.333,162.667 580,160C584.667,157.333 590.667,155.167 596,155C601.333,154.833 607.833,157 612,159C615.619,160.737 618.526,163.839 621,167C624,170.833 627.02,176.988 630,182C633.667,188.167 639.833,197 643,204C645.869,210.341 646.5,217.667 649,224C651.463,230.24 655.242,235.885 658,242C661.833,250.5 668.053,263.722 672,275C676.667,288.333 680.945,306.454 686,322C692.667,342.5 706.333,382 712,398C714.397,404.768 716.834,411.555 720,418C724.667,427.5 734.395,442.149 740,455C746.833,470.667 754.5,495.167 761,512C766.708,526.783 774,541 779,556C784,571 788.08,586.425 791,602C794,618 795.5,638.5 797,652C798.146,662.318 798.333,674.5 800,683C801.359,689.931 803.657,696.778 807,703C813,714.167 827.833,738.333 836,750C841.826,758.323 850.21,764.652 856,773C863.167,783.333 888.833,802 879,812C869.167,822 822.833,823.5 797,833C771.536,842.364 745.5,856.5 724,869C704.335,880.433 682.833,895.167 668,908C655.313,918.976 646,950 635,946Z" style="fill:none;stroke:black;stroke-width:33.33px;"/>
</svg>
